<?xml version="1.0" encoding="utf-8"?>
<!-- Generator: Adobe Illustrator 24.1.2, SVG Export Plug-In . SVG Version: 6.00 Build 0)  -->
<svg version="1.1" id="레이어_1" xmlns="http://www.w3.org/2000/svg" xmlns:xlink="http://www.w3.org/1999/xlink" x="0px"
	 y="0px" viewBox="0 0 100 100" style="enable-background:new 0 0 100 100;" xml:space="preserve">
<style type="text/css">
	.st0{fill:none;stroke:#000000;stroke-miterlimit:10;}
	.st1{fill-rule:evenodd;clip-rule:evenodd;}
</style>
<path class="st0" d="M49.5,0.5"/>
<g id="bookmark" transform="translate(688.196 694.307)">
	<path id="bookmark-2" class="st1" d="M-594.16-594.31h-11.42l-27.9-27.91c-2.44-2.44-6.4-2.44-8.84,0l-27.91,27.91h-11.42v-81.25
		c0-10.36,8.39-18.75,18.75-18.75h50c10.36,0,18.75,8.39,18.75,18.75V-594.31z M-606.66-675.56c0-3.45-2.8-6.25-6.25-6.25h-50
		c-3.45,0-6.25,2.8-6.25,6.25v62.5l17.99-17.99c7.32-7.32,19.19-7.32,26.52,0c0,0,0,0,0,0l17.99,17.99V-675.56z"/>
</g>
</svg>
