<?xml version="1.0" encoding="utf-8"?>
<!-- Generator: Adobe Illustrator 24.1.2, SVG Export Plug-In . SVG Version: 6.00 Build 0)  -->
<svg version="1.1" id="레이어_1" xmlns="http://www.w3.org/2000/svg" xmlns:xlink="http://www.w3.org/1999/xlink" x="0px"
	 y="0px" viewBox="0 0 100 100" style="enable-background:new 0 0 100 100;" xml:space="preserve">
<style type="text/css">
	.st0{fill:#FFFFFF;}
</style>
<g>
	<g>
		<circle cx="39.94" cy="60.06" r="39.94"/>
		<rect x="0" y="60.06" width="39.94" height="39.94"/>
		<path class="st0" d="M23.83,65.62L1.56,43.34c-1.5-1.5-1.5-3.94,0-5.44l0.6-0.6c1.5-1.5,3.94-1.5,5.44,0l22.27,22.27
			c1.5,1.5,1.5,3.94,0,5.44l-0.6,0.6C27.77,67.12,25.33,67.12,23.83,65.62z"/>
		<path class="st0" d="M38.51,50.94L16.23,28.66c-1.5-1.5-1.5-3.94,0-5.44l0.6-0.6c1.5-1.5,3.94-1.5,5.44,0L44.55,44.9
			c1.5,1.5,1.5,3.94,0,5.44l-0.6,0.6C42.45,52.44,40.01,52.44,38.51,50.94z"/>
	</g>
	<g>
		<path d="M100.3-0.08v39.59H89.02V11.2l-7.32,28.31h-7.72L66.36,11.2v28.31h-9.11V-0.08h15.88l5.74,21.03l5.48-21.03H100.3z"/>
	</g>
</g>
</svg>
