<?xml version="1.0" encoding="utf-8"?>
<!-- Generator: Adobe Illustrator 24.1.2, SVG Export Plug-In . SVG Version: 6.00 Build 0)  -->
<svg version="1.1" id="레이어_1" xmlns="http://www.w3.org/2000/svg" xmlns:xlink="http://www.w3.org/1999/xlink" x="0px"
     y="0px" viewBox="0 0 100 75.17" style="enable-background:new 0 0 100 75.17;" xml:space="preserve">
<style type="text/css">
	.st0{fill:none;stroke:#000000;stroke-miterlimit:10;}
	.st1{fill-rule:evenodd;clip-rule:evenodd;}
</style>
    <path class="st0" d="M49.5,0"/>
    <g id="credit-card" transform="translate(326.627 1306.561)">
	<path id="Path_346" d="M-309.96-1281.39c0-2.3,1.87-4.17,4.17-4.17h16.67c2.3,0,4.17,1.87,4.17,4.17c0,2.3-1.87,4.17-4.17,4.17
		h-16.67C-308.09-1277.23-309.96-1279.09-309.96-1281.39z"/>
        <path id="Path_347" class="st1" d="M-309.96-1306.39c-9.2,0-16.67,7.46-16.67,16.67v41.67c0,9.2,7.46,16.67,16.67,16.67h66.67
		c9.2,0,16.67-7.46,16.67-16.67v-41.67c0-9.2-7.46-16.67-16.67-16.67H-309.96z M-243.29-1298.06h-66.67c-4.6,0-8.33,3.73-8.33,8.33
		v29.17h83.33v-29.17C-234.96-1294.33-238.69-1298.06-243.29-1298.06z M-234.96-1252.23h-83.33v4.17c0,4.6,3.73,8.33,8.33,8.33
		h66.67c4.6,0,8.33-3.73,8.33-8.33V-1252.23z"/>
</g>
</svg>
