<?xml version="1.0" encoding="utf-8"?>
<!-- Generator: Adobe Illustrator 24.1.2, SVG Export Plug-In . SVG Version: 6.00 Build 0)  -->
<svg version="1.1" id="레이어_1" xmlns="http://www.w3.org/2000/svg" xmlns:xlink="http://www.w3.org/1999/xlink" x="0px"
     y="0px" viewBox="0 0 100 100" style="enable-background:new 0 0 100 100;" xml:space="preserve">
<style type="text/css">
	.st0{fill:none;stroke:#000000;stroke-miterlimit:10;}
	.st1{fill-rule:evenodd;clip-rule:evenodd;}
</style>
    <path class="st0" d="M49.5,0.5"/>
    <g id="home" transform="translate(614.882 1994.387)">
	<path id="home-2" class="st1" d="M-523.88-1958.85l-31.43-31.43c-5.28-5.28-13.83-5.28-19.11,0c0,0,0,0,0,0l-30.52,30.52v65.36
		h31.52v-27.02c0-4.97,4.03-9.01,9.01-9.01s9.01,4.03,9.01,9.01v27.02h31.52V-1958.85z M-568.05-1983.91l-27.88,27.89v52.63h13.51
		v-18.01c0-9.95,8.06-18.01,18.01-18.01s18.01,8.06,18.01,18.01v18.01h13.51v-51.72l-28.79-28.79
		C-563.44-1985.67-566.29-1985.67-568.05-1983.91C-568.05-1983.91-568.05-1983.91-568.05-1983.91z"/>
</g>
</svg>
